<svg width="74" height="74" viewBox="0 0 74 74" fill="none" xmlns="http://www.w3.org/2000/svg">
<path d="M35.9527 0H37.977L39.556 0.0809759L41.3375 0.242928L42.8355 0.445367L44.617 0.769271L45.8721 1.05269L47.6535 1.53854L49.111 2.0244L50.2447 2.42928L51.5403 2.95562L52.9573 3.60343L54.4149 4.33221L55.3866 4.89904L56.2368 5.3849L57.249 6.0327L58.1397 6.64002L58.8685 7.16637L59.9211 7.97612L60.3665 8.34052L60.8928 8.78588L61.4596 9.27174L62.4313 10.1625L63.9699 11.701L64.2533 12.0249L64.6986 12.5108L65.063 12.9561L65.5893 13.5635L66.1157 14.2518L66.561 14.8186L67.0874 15.5474L67.6947 16.4381L68.3425 17.4503L68.8283 18.2601L69.3547 19.1913L69.8405 20.1225L70.4073 21.2562L71.0146 22.6328L71.5815 24.0903L72.2293 25.9933L72.7151 27.7342L73.1605 29.7181L73.4439 31.3782L73.6463 32.9977L73.8083 35.0221L73.8487 36.3582V37.4918L73.8083 38.8279L73.6868 40.4474L73.5653 41.5406L73.4034 42.7148L73.1605 44.1319L72.8366 45.6299L72.3912 47.2899L71.9458 48.707L71.541 49.8811L70.9742 51.2982L70.3264 52.7558L69.4356 54.5373L68.8688 55.509L68.5449 56.0758L68.0591 56.8451L67.5327 57.6548L67.0469 58.3431L66.5206 59.0719L66.1157 59.5982L65.5893 60.2461L65.2654 60.6509L64.7391 61.2583L64.0103 62.068L63.4435 62.6753L62.3099 63.809L61.986 64.0924L61.4192 64.6188L60.9738 64.9831L60.5689 65.3475L60.0021 65.7929L59.3948 66.2788L58.747 66.7646L57.9373 67.3314L57.087 67.8983L56.1963 68.4651L55.1436 69.0724L53.9695 69.7202L52.7549 70.3275L51.2973 70.9754L49.8398 71.5422L48.3418 72.0685L46.6818 72.5544L45.0623 72.9593L43.4023 73.2832L42.1067 73.4856L40.3253 73.688L38.6653 73.8095L37.4912 73.85H36.2766L35.062 73.8095L32.9971 73.6476L31.3776 73.4451L29.5152 73.1212L27.6123 72.6758L26.1548 72.271L24.5353 71.7446L22.8348 71.0968L21.7417 70.611L20.77 70.1656L19.3934 69.4773L18.4217 68.9105L17.6929 68.5056L16.8832 67.9792L16.3164 67.6149L14.9398 66.6431L14.373 66.1978L13.8466 65.7929L13.1988 65.2666L12.794 64.9022L12.3486 64.5378L11.7008 63.9305L11.0125 63.2826L10.2028 62.4729L9.91938 62.149L9.5145 61.7441L9.15012 61.2987L8.70476 60.8129L8.34037 60.3675L7.81404 59.7197L7.32819 59.0719L6.76137 58.3026L6.11357 57.3714L5.7087 56.7236L5.22286 55.9543L4.69652 55.0231L4.29165 54.2943L3.60337 52.9582L3.03654 51.7031L2.5507 50.5289L2.02436 49.1119L1.53852 47.6138L1.05267 45.8323L0.688283 44.1723L0.404873 42.5528L0.161949 40.6094L0.0404873 38.9899L0 38.0587V35.7104L0.0809745 34.1718L0.202436 32.8357L0.404873 31.2567L0.728771 29.4752L1.09316 27.8557L1.37657 26.803L1.70046 25.7098L2.30777 23.9284L2.79362 22.7137L3.19849 21.7825L3.72483 20.6488L4.21067 19.6771L4.69652 18.7864L5.34432 17.6932L5.83016 16.924L6.3565 16.1142L6.88283 15.3854L7.28771 14.8186L7.69258 14.2922L8.17842 13.6849L8.46184 13.3205L8.82622 12.9157L9.19061 12.4703L9.63597 11.9844L9.79792 11.782H9.87889L9.95986 11.62L10.6077 10.9722L10.8911 10.6483L11.3769 10.203L11.7413 9.83857L12.0652 9.55515L12.5915 9.0693L13.0369 8.70491L13.6037 8.21905L14.1301 7.81417L14.6969 7.3688L15.4256 6.84246L16.2354 6.27563L17.1666 5.66831L18.0168 5.14197L19.029 4.57514L19.4744 4.33221L20.4056 3.84635L21.0534 3.52245L22.4704 2.87464L23.928 2.30781L24.6972 2.0244L26.0738 1.57903L27.6933 1.13366L29.4342 0.728783L31.4991 0.364391L33.24 0.161952L34.8595 0.0404879L35.9527 0Z" fill="white"/>
<mask id="path-2-inside-1_6_439" fill="white">
<path d="M24.8539 20.082H48.9443L49.835 20.2035L50.6852 20.4464L51.333 20.7298L51.9809 21.1347L52.6287 21.6611L53.1145 22.1874L53.4789 22.7137L53.7623 23.1996L54.0052 23.8069L54.2482 24.6572L54.8555 27.5318L55.1794 29.0299L55.2199 29.1108L56.5965 29.1513L56.556 27.8152V27.046L56.637 26.7625L56.8394 26.5601L57.0823 26.4386L61.9004 26.3981L63.0341 26.4386L63.277 26.6006L63.4389 26.803L63.4794 27.0055V30.6899L63.358 31.0138L63.1555 31.1757L62.5077 31.3377L60.1189 31.7426L57.4062 32.1879H57.0823L56.7584 32.026L56.637 31.864L56.5965 31.7426V30.4469H55.4628L55.7867 31.7426L56.1511 33.3216L56.3535 33.4835L56.8394 33.767L57.4062 34.1718L57.8921 34.6172L58.297 35.0221L58.7828 35.7104L59.1067 36.2772L59.4306 37.0465L59.6331 37.8562L59.7545 38.747L60.1189 42.8767L60.1999 44.2938V51.0958L60.0784 51.8651L59.9165 52.2699L59.6331 52.7153L59.1472 53.2012L58.7828 53.4441L58.2565 53.6465L57.9326 53.7275L53.3979 53.768H52.1833L51.6165 53.687L50.9687 53.4441L50.5233 53.1607L50.1184 52.7558L49.7945 52.189L49.6326 51.7436L49.5516 51.2173L49.5111 49.9216H24.3276L24.2871 51.1768L24.2061 51.7436L23.9632 52.3509L23.5583 52.9177L23.2344 53.2012L22.7891 53.4846L22.2222 53.687L21.6149 53.768H16.2705L15.7441 53.687L15.1773 53.4846L14.7724 53.2417L14.3676 52.8773L14.1246 52.5534L13.8817 52.0675L13.7602 51.5816L13.7198 51.2173L13.6793 49.3548V44.7392L13.7602 42.9172L14.1246 38.8684L14.2461 37.9372L14.4485 37.1275L14.651 36.6011L14.9749 35.9533L15.3798 35.346L15.7441 34.9006L16.3515 34.2933L17.0803 33.767L17.7281 33.4026L17.8495 32.9167L18.3354 30.4469L17.2827 30.4874V31.5806L17.1207 31.945L16.8373 32.1474L16.5539 32.1879L14.8129 31.9045L11.1285 31.2972L10.6022 31.1352L10.3997 30.8923L10.3593 30.7304V26.8435L10.4807 26.6411L10.8046 26.4386L11.169 26.3981H16.392L16.8373 26.4386L17.0803 26.6006L17.2422 26.8435L17.2827 27.4913V29.1513L18.6188 29.1108L18.8212 28.2606L19.4286 25.4264L19.7525 24.0498L19.9954 23.4425L20.2788 22.8757L20.6027 22.3898L21.0886 21.823L21.372 21.5396L21.9388 21.0942L22.6676 20.6489L23.4773 20.325L24.1656 20.163L24.8539 20.082Z"/>
</mask>
<path d="M24.8539 20.082H48.9443L49.835 20.2035L50.6852 20.4464L51.333 20.7298L51.9809 21.1347L52.6287 21.6611L53.1145 22.1874L53.4789 22.7137L53.7623 23.1996L54.0052 23.8069L54.2482 24.6572L54.8555 27.5318L55.1794 29.0299L55.2199 29.1108L56.5965 29.1513L56.556 27.8152V27.046L56.637 26.7625L56.8394 26.5601L57.0823 26.4386L61.9004 26.3981L63.0341 26.4386L63.277 26.6006L63.4389 26.803L63.4794 27.0055V30.6899L63.358 31.0138L63.1555 31.1757L62.5077 31.3377L60.1189 31.7426L57.4062 32.1879H57.0823L56.7584 32.026L56.637 31.864L56.5965 31.7426V30.4469H55.4628L55.7867 31.7426L56.1511 33.3216L56.3535 33.4835L56.8394 33.767L57.4062 34.1718L57.8921 34.6172L58.297 35.0221L58.7828 35.7104L59.1067 36.2772L59.4306 37.0465L59.6331 37.8562L59.7545 38.747L60.1189 42.8767L60.1999 44.2938V51.0958L60.0784 51.8651L59.9165 52.2699L59.6331 52.7153L59.1472 53.2012L58.7828 53.4441L58.2565 53.6465L57.9326 53.7275L53.3979 53.768H52.1833L51.6165 53.687L50.9687 53.4441L50.5233 53.1607L50.1184 52.7558L49.7945 52.189L49.6326 51.7436L49.5516 51.2173L49.5111 49.9216H24.3276L24.2871 51.1768L24.2061 51.7436L23.9632 52.3509L23.5583 52.9177L23.2344 53.2012L22.7891 53.4846L22.2222 53.687L21.6149 53.768H16.2705L15.7441 53.687L15.1773 53.4846L14.7724 53.2417L14.3676 52.8773L14.1246 52.5534L13.8817 52.0675L13.7602 51.5816L13.7198 51.2173L13.6793 49.3548V44.7392L13.7602 42.9172L14.1246 38.8684L14.2461 37.9372L14.4485 37.1275L14.651 36.6011L14.9749 35.9533L15.3798 35.346L15.7441 34.9006L16.3515 34.2933L17.0803 33.767L17.7281 33.4026L17.8495 32.9167L18.3354 30.4469L17.2827 30.4874V31.5806L17.1207 31.945L16.8373 32.1474L16.5539 32.1879L14.8129 31.9045L11.1285 31.2972L10.6022 31.1352L10.3997 30.8923L10.3593 30.7304V26.8435L10.4807 26.6411L10.8046 26.4386L11.169 26.3981H16.392L16.8373 26.4386L17.0803 26.6006L17.2422 26.8435L17.2827 27.4913V29.1513L18.6188 29.1108L18.8212 28.2606L19.4286 25.4264L19.7525 24.0498L19.9954 23.4425L20.2788 22.8757L20.6027 22.3898L21.0886 21.823L21.372 21.5396L21.9388 21.0942L22.6676 20.6489L23.4773 20.325L24.1656 20.163L24.8539 20.082Z" fill="black" stroke="black" stroke-width="4" mask="url(#path-2-inside-1_6_439)"/>
<path d="M54.1003 48.9404L54.0349 48.8252L53.8728 48.542L53.8074 48.4287L53.696 48.3613L53.4929 48.2393L53.4031 48.1855L53.2976 48.1719L52.9744 48.1318L52.9441 48.1279H52.9148L44.822 48.0889L44.7878 45.625V45.5791L44.7781 45.5342L44.697 45.1289L44.6628 44.9561L44.5271 44.8428L44.2839 44.6406L44.157 44.5342L43.991 44.5254L43.2214 44.4844H30.3777L30.3552 44.4863L29.9099 44.5264L29.8015 44.5361L29.7078 44.5898L29.4236 44.752L29.3337 44.8037L29.2722 44.8867L29.1501 45.0488L29.0828 45.1387L29.0603 45.25L29.0193 45.4531L29.0105 45.501V48.0889L20.6814 48.1279H20.5916L20.5085 48.1602L20.1843 48.2812L20.0417 48.335L19.9529 48.459L19.7507 48.7422L19.657 48.8721V49.5303L19.7234 49.6455L19.8855 49.9287L19.9529 50.0469L20.071 50.1143L20.3542 50.2764L20.4656 50.3398L20.5945 50.3428L22.4919 50.375V51.1689L22.3855 51.4629L22.2166 51.6865L22.0271 51.8496L21.8142 51.9561L21.7273 51.9746H16.3259L16.0935 51.9229L15.8835 51.7959L15.8679 51.7646L15.7292 51.4883H15.6228L15.5691 51.4004L15.5154 51.1289V44.2959L15.5945 42.7197L15.8767 39.4902L15.9958 38.3789L16.1433 37.7178L16.324 37.209L16.6511 36.5908L17.0173 36.1143L17.1453 35.9697H17.3601L17.4636 35.6543L17.9675 35.2773L18.4792 34.9854L18.9861 34.7676L19.6853 34.584L20.3044 34.5117H53.7214L54.3679 34.6191L55.0271 34.8389L55.6238 35.1367L56.1306 35.4639L56.5046 35.8008L56.6677 35.9639L56.9675 36.3008L57.2957 36.8125L57.5876 37.3945L57.8083 38.0938L57.9216 38.8887L58.2849 43.0039L58.364 44.498V51.0479L58.3054 51.3379L58.2009 51.5469L58.0437 51.7305L57.782 51.9053L57.5974 51.9746H52.03L51.7585 51.876L51.4451 51.5908L51.3621 51.4463L51.2664 50.9307V50.373L52.8816 50.3428L52.9255 50.3418L53.3748 50.252L53.4988 50.2266L53.5964 50.1455L53.8396 49.9434L53.9197 49.876L53.9666 49.7822L54.0476 49.6211L54.1003 49.5156V48.9404Z" fill="black" stroke="white"/>
<path d="M48.7576 21.8359L49.3679 21.9072L49.9724 22.085L50.5603 22.3789L50.9597 22.6328L51.324 22.9248L51.6355 23.2363L51.9597 23.7041L52.2458 24.2422L52.4675 24.9854L52.8279 26.6631L53.8806 31.6816V31.6846L53.9998 32.2422L53.7781 32.2539H50.7673L19.8054 32.2129L21.1736 25.6895L21.1726 25.6885L21.405 24.6826L21.6238 24.0967L21.8748 23.6318L22.2341 23.1641L22.6658 22.7324L23.0144 22.4883L23.3562 22.2998L23.6355 22.1592L24.1335 21.9814L24.7019 21.875L47.7712 21.8359H48.7576Z" fill="black" stroke="white"/>
<path d="M54.3544 38.2891L54.7635 38.3701L55.0594 38.4932L55.3456 38.6934L55.4198 38.752L55.6766 39.1104L55.8778 39.6006L55.9637 40.0566V40.6592L55.8485 41.1738L55.6259 41.6484L55.3895 41.9375L55.1971 42.1055L54.9735 42.2393L54.5321 42.3779L54.3221 42.4023H48.2411L47.8739 42.3232L47.493 42.1602L47.2206 41.9697L46.9628 41.7383L46.7216 41.3623L46.5546 40.9463L46.5458 40.8896V40.4355L46.6278 40.168L46.7714 39.9307L46.8348 39.8535L47.037 39.7119L47.2616 39.6221L48.0077 39.4434L50.9384 38.8779L53.8553 38.3145L54.0389 38.2891H54.3544Z" fill="white" stroke="white" stroke-width="2"/>
<path d="M20.3533 38.3711L21.6853 38.5996V38.5986L24.8171 39.2012V39.2021L26.7878 39.5957L27.1902 39.7197L27.3982 39.8232L27.5642 39.9727L27.7117 40.2686L27.738 40.3691V40.6865L27.6316 41.1113L27.4041 41.5654L27.1843 41.8408L26.9792 42.0459L26.6423 42.2539L26.3689 42.3535L26.0994 42.4033H20.0281L19.6589 42.3457L19.2527 42.2109L19.0007 42.0508L18.7693 41.8193L18.5486 41.4326L18.4041 41.0547L18.3201 40.6328V40.0938L18.406 39.6348L18.5798 39.2021L18.7507 38.9326L19.032 38.6514L19.2703 38.5078L19.5964 38.3721L19.6062 38.3711H20.3533Z" fill="white" stroke="white" stroke-width="2"/>
<path d="M42.0321 47.2383V47.5869H31.8046V47.2383H42.0321Z" fill="white" stroke="white" stroke-width="2"/>
<path d="M54.243 39.5254L54.4374 39.6064L54.5292 39.6875L54.6649 39.9004L54.7421 40.1523V40.54L54.6708 40.7705L54.5458 40.9492L54.4276 41.0527L54.3055 41.1074H48.2841L48.2255 41.084L47.955 40.8359L47.9325 40.8037L48.2089 40.7295L51.327 40.0908L51.3339 40.0898L53.9745 39.5283L54.079 39.5107L54.243 39.5254Z" fill="black" stroke="black" stroke-width="2"/>
<path d="M20.3435 39.5859L24.4509 40.375V40.376L26.3845 40.7695L26.4021 40.7744L26.3435 40.8633L26.2039 41.0029L25.9949 41.1084H20.0271L19.9275 41.0684L19.7957 40.9658L19.6755 40.7939L19.5837 40.542L19.5779 40.5098V40.2051L19.6433 39.9453L19.7478 39.7344L19.8259 39.666L19.988 39.5859H20.3435Z" fill="white" stroke="black" stroke-width="2"/>
<path d="M61.1436 28.6953V29.249L58.8115 29.6338V28.6953H61.1436Z" fill="black" stroke="black" stroke-width="2"/>
<path d="M14.9882 28.6953V29.625L14.1024 29.4648L14.0956 29.4629L14.0878 29.4619L12.6561 29.2227V28.6953H14.9882Z" fill="white" stroke="black" stroke-width="2"/>
</svg>
